  0
SECTION
  2
HEADER
  9
$ACADVER
  1
AC1009
  9
$INSBASE
 10
0.0
 20
0.0
 30
0.0
  9
$EXTMIN
 10
0.0
 20
0.0
 30
0.0
  9
$EXTMAX
 10
0.0
 20
0.0
 30
0.0
  0
ENDSEC
  0
SECTION
  2
TABLES
  0
TABLE
  2
VPORT
 70
0
  0
ENDTAB
  0
TABLE
  2
LTYPE
 70
1
  0
LTYPE
  2
CONTINUOUS
 70
0
  3
Solid line
 72
65
 73
0
 40
0.0
  0
ENDTAB
  0
TABLE
  2
LAYER
 70
1
  0
LAYER
  2
0
 70
64
 62
7
  6
continuous
  0
ENDTAB
  0
TABLE
  2
STYLE
 70
1
  0
STYLE
  2
STANDARD
 70
0
 40
0
 41
1.0
 50
0.0
 71
0
 42
1
 3
ARIAL.TTF
 4

  0
ENDTAB
  0
TABLE
  2
VIEW
 70
0
  0
ENDTAB
  0
ENDSEC
  0
SECTION
  2
BLOCKS
  0
BLOCK
  8
0
  2
PART__FEATURE
 70
0
 10
0.0
 20
0.0
 30
0.0
  3
PART__FEATURE
  0
ARC
  8
0
 62
0
 10
-222.460912386
 20
-47.4289699606
 30
0.0
 40
2.2479
 50
-180.0
 51
-0.0
  0
ARC
  8
0
 62
0
 10
-289.828247911
 20
-6.57057937218
 30
0.0
 40
2.2479
 50
-180.0
 51
-0.0
  0
ARC
  8
0
 62
0
 10
-329.209866645
 20
-26.4384554961
 30
0.0
 40
2.2479
 50
-180.0
 51
-0.0
  0
ARC
  8
0
 62
0
 10
-302.093451995
 20
-84.5729758212
 30
0.0
 40
2.2479
 50
-180.0
 51
-0.0
  0
ARC
  8
0
 62
0
 10
-143.019416651
 20
-46.1589699606
 30
0.0
 40
2.2479
 50
-180.0
 51
-0.0
  0
ARC
  8
0
 62
0
 10
-141.512915691
 20
75.7690300394
 30
0.0
 40
2.2479
 50
-180.0
 51
-0.0
  0
ARC
  8
0
 62
0
 10
-193.961915691
 20
75.8960300394
 30
0.0
 40
2.2479
 50
-180.0
 51
-0.0
  0
ARC
  8
0
 62
0
 10
-228.490916785
 20
64.7760301654
 30
0.0
 40
2.2479
 50
-180.0
 51
-0.0
  0
ARC
  8
0
 62
0
 10
-286.275916785
 20
63.8235301654
 30
0.0
 40
2.2479
 50
-180.0
 51
-0.0
  0
ARC
  8
0
 62
0
 10
-228.840925173
 20
88.5885301654
 30
0.0
 40
19.05
 50
-90.0
 51
-65.0
  0
LINE
  8
0
 62
0
 10
-197.789510254
 20
82.0486933825
 30
0.0
 11
-220.790047287
 21
71.3233668224
 31
0.0
  0
ARC
  8
0
 62
0
 10
-189.738632368
 20
64.7835300394
 30
0.0
 40
19.05
 50
90.0
 51
115.0
  0
LINE
  8
0
 62
0
 10
-143.654416651
 20
83.8335300394
 30
0.0
 11
-189.738632368
 21
83.8335300394
 31
0.0
  0
ARC
  8
0
 62
0
 10
-143.654416651
 20
77.4835300394
 30
0.0
 40
6.35
 50
-0.0
 51
90.0
  0
LINE
  8
0
 62
0
 10
-137.304416651
 20
-45.5239699606
 30
0.0
 11
-137.304416651
 21
77.4835300394
 31
0.0
  0
ARC
  8
0
 62
0
 10
-143.654416651
 20
-45.5239699606
 30
0.0
 40
6.35
 50
-90.0
 51
-0.0
  0
LINE
  8
0
 62
0
 10
-218.56490997
 20
-51.8739699606
 30
0.0
 11
-143.654416651
 21
-51.8739699606
 31
0.0
  0
ARC
  8
0
 62
0
 10
-218.56490997
 20
-58.2239699606
 30
0.0
 40
6.35
 50
90.0
 51
115.00634861
  0
LINE
  8
0
 62
0
 10
-298.79508968
 20
-88.6399287397
 30
0.0
 11
-221.249173599
 21
-52.4692129051
 31
0.0
  0
ARC
  8
0
 62
0
 10
-301.47935331
 20
-82.8851716842
 30
0.0
 40
6.35
 50
-154.99365139
 51
-64.99365139
  0
LINE
  8
0
 62
0
 10
-333.276819563
 20
-29.7368178108
 30
0.0
 11
-307.234110365
 21
-85.5694353137
 31
0.0
  0
ARC
  8
0
 62
0
 10
-327.522062508
 20
-27.0525541813
 30
0.0
 40
6.35
 50
115.00634861
 51
-154.99365139
  0
LINE
  8
0
 62
0
 10
-295.656653156
 20
-5.182359115
 30
0.0
 11
-330.206326137
 21
-21.2977971259
 31
0.0
  0
ARC
  8
0
 62
0
 10
-298.340916785
 20
0.572397940464
 30
0.0
 40
6.35
 50
-64.99365139
 51
-0.0
  0
LINE
  8
0
 62
0
 10
-291.990916785
 20
63.1885301654
 30
0.0
 11
-291.990916785
 21
0.572397940464
 31
0.0
  0
ARC
  8
0
 62
0
 10
-285.640916785
 20
63.1885301654
 30
0.0
 40
6.35
 50
90.0
 51
-180.0
  0
LINE
  8
0
 62
0
 10
-273.331416777
 20
69.5385301654
 30
0.0
 11
-285.640916785
 21
69.5385301654
 31
0.0
  0
LINE
  8
0
 62
0
 10
-271.426416777
 20
67.6335301654
 30
0.0
 11
-271.426416777
 21
66.1095301654
 31
0.0
  0
LINE
  8
0
 62
0
 10
-271.426416777
 20
66.1095301654
 30
0.0
 11
-274.205083093
 21
66.1095301654
 31
0.0
  0
LINE
  8
0
 62
0
 10
-274.205083093
 20
66.1095301654
 30
0.0
 11
-282.847467804
 21
57.4671454547
 31
0.0
  0
LINE
  8
0
 62
0
 10
-282.847467804
 20
57.4671454547
 30
0.0
 11
-282.847467804
 21
-9.98899242702
 31
0.0
  0
LINE
  8
0
 62
0
 10
-282.847467804
 20
-9.98899242702
 30
0.0
 11
-322.965592348
 21
-28.7107838807
 31
0.0
  0
LINE
  8
0
 62
0
 10
-322.965592348
 20
-28.7107838807
 30
0.0
 11
-299.786155968
 21
-78.3810046934
 31
0.0
  0
LINE
  8
0
 62
0
 10
-299.786155968
 20
-78.3810046934
 30
0.0
 11
-223.391081541
 21
-42.7299699606
 31
0.0
  0
LINE
  8
0
 62
0
 10
-223.391081541
 20
-42.7299699606
 30
0.0
 11
-146.448967678
 21
-42.7299699606
 31
0.0
  0
LINE
  8
0
 62
0
 10
-146.448967678
 20
-42.7299699606
 30
0.0
 11
-146.448967678
 21
79.3250300394
 31
0.0
  0
LINE
  8
0
 62
0
 10
-189.453415691
 20
79.3250300394
 30
0.0
 11
-146.448967678
 21
79.3250300394
 31
0.0
  0
LINE
  8
0
 62
0
 10
-189.453415691
 20
66.1095301654
 30
0.0
 11
-189.453415691
 21
79.3250300394
 31
0.0
  0
LINE
  8
0
 62
0
 10
-194.581967678
 20
66.1095301654
 30
0.0
 11
-189.453415691
 21
66.1095301654
 31
0.0
  0
LINE
  8
0
 62
0
 10
-194.581967678
 20
61.0295301654
 30
0.0
 11
-194.581967678
 21
66.1095301654
 31
0.0
  0
LINE
  8
0
 62
0
 10
-231.919967678
 20
61.0295301654
 30
0.0
 11
-194.581967678
 21
61.0295301654
 31
0.0
  0
LINE
  8
0
 62
0
 10
-231.919967678
 20
67.6335301654
 30
0.0
 11
-231.919967678
 21
61.0295301654
 31
0.0
  0
ARC
  8
0
 62
0
 10
-286.275916785
 20
63.8235301654
 30
0.0
 40
2.2479
 50
-0.0
 51
-180.0
  0
ARC
  8
0
 62
0
 10
-228.490916785
 20
64.7760301654
 30
0.0
 40
2.2479
 50
-0.0
 51
-180.0
  0
ARC
  8
0
 62
0
 10
-193.961915691
 20
75.8960300394
 30
0.0
 40
2.2479
 50
-0.0
 51
-180.0
  0
ARC
  8
0
 62
0
 10
-141.512915691
 20
75.7690300394
 30
0.0
 40
2.2479
 50
-0.0
 51
-180.0
  0
ARC
  8
0
 62
0
 10
-143.019416651
 20
-46.1589699606
 30
0.0
 40
2.2479
 50
-0.0
 51
-180.0
  0
ARC
  8
0
 62
0
 10
-302.093451995
 20
-84.5729758212
 30
0.0
 40
2.2479
 50
-0.0
 51
-180.0
  0
ARC
  8
0
 62
0
 10
-329.209866645
 20
-26.4384554961
 30
0.0
 40
2.2479
 50
-0.0
 51
-180.0
  0
ARC
  8
0
 62
0
 10
-289.828247911
 20
-6.57057937218
 30
0.0
 40
2.2479
 50
-0.0
 51
-180.0
  0
ARC
  8
0
 62
0
 10
-222.460912386
 20
-47.4289699606
 30
0.0
 40
2.2479
 50
-0.0
 51
-180.0
  0
LINE
  8
0
 62
0
 10
-228.840925173
 20
69.5385301654
 30
0.0
 11
-230.014967678
 21
69.5385301654
 31
0.0
  0
LINE
  8
0
 62
0
 10
-230.014967678
 20
69.5385301654
 30
0.0
 11
-231.919967678
 21
67.6335301654
 31
0.0
  0
LINE
  8
0
 62
0
 10
-271.426416777
 20
67.6335301654
 30
0.0
 11
-273.331416777
 21
69.5385301654
 31
0.0
  0
ENDBLK
  0
ENDSEC
  0
SECTION
  2
ENTITIES
  0
INSERT
  2
PART__FEATURE
  8
0
 62
0
 10
0.0
 20
0.0
 30
0.0
  0
ENDSEC
  0
EOF
