  0
SECTION
  2
HEADER
  9
$ACADVER
  1
AC1009
  9
$INSBASE
 10
0.0
 20
0.0
 30
0.0
  9
$EXTMIN
 10
0.0
 20
0.0
 30
0.0
  9
$EXTMAX
 10
0.0
 20
0.0
 30
0.0
  0
ENDSEC
  0
SECTION
  2
TABLES
  0
TABLE
  2
VPORT
 70
0
  0
ENDTAB
  0
TABLE
  2
LTYPE
 70
1
  0
LTYPE
  2
CONTINUOUS
 70
0
  3
Solid line
 72
65
 73
0
 40
0.0
  0
ENDTAB
  0
TABLE
  2
LAYER
 70
1
  0
LAYER
  2
0
 70
64
 62
7
  6
continuous
  0
ENDTAB
  0
TABLE
  2
STYLE
 70
1
  0
STYLE
  2
STANDARD
 70
0
 40
0
 41
1.0
 50
0.0
 71
0
 42
1
 3
ARIAL.TTF
 4

  0
ENDTAB
  0
TABLE
  2
VIEW
 70
0
  0
ENDTAB
  0
ENDSEC
  0
SECTION
  2
BLOCKS
  0
BLOCK
  8
0
  2
PART__FEATURE
 70
0
 10
0.0
 20
0.0
 30
0.0
  3
PART__FEATURE
  0
ARC
  8
0
 62
0
 10
-289.828803047
 20
-6.582868438
 30
0.0
 40
2.2479
 50
-180.0
 51
-0.0
  0
ARC
  8
0
 62
0
 10
-329.210421781
 20
-26.450744562
 30
0.0
 40
2.2479
 50
-180.0
 51
-0.0
  0
ARC
  8
0
 62
0
 10
-302.094007131
 20
-84.585264887
 30
0.0
 40
2.2479
 50
-180.0
 51
-0.0
  0
ARC
  8
0
 62
0
 10
-222.461467522
 20
-47.4412590264
 30
0.0
 40
2.2479
 50
-180.0
 51
-0.0
  0
ARC
  8
0
 62
0
 10
-143.019971787
 20
-46.1712590264
 30
0.0
 40
2.2479
 50
-180.0
 51
-0.0
  0
ARC
  8
0
 62
0
 10
-141.513470827
 20
75.7567409736
 30
0.0
 40
2.2479
 50
-180.0
 51
-0.0
  0
ARC
  8
0
 62
0
 10
-193.962470827
 20
75.8837409736
 30
0.0
 40
2.2479
 50
-180.0
 51
-0.0
  0
ARC
  8
0
 62
0
 10
-286.276471921
 20
63.8112410996
 30
0.0
 40
2.2479
 50
-180.0
 51
-0.0
  0
ARC
  8
0
 62
0
 10
-228.491471921
 20
64.7637410996
 30
0.0
 40
2.2479
 50
-180.0
 51
-0.0
  0
LINE
  8
0
 62
0
 10
-194.582522814
 20
66.0972410996
 30
0.0
 11
-146.449522814
 21
66.0972410996
 31
0.0
  0
LINE
  8
0
 62
0
 10
-194.582522814
 20
61.0172410996
 30
0.0
 11
-194.582522814
 21
66.0972410996
 31
0.0
  0
LINE
  8
0
 62
0
 10
-231.920522814
 20
61.0172410996
 30
0.0
 11
-194.582522814
 21
61.0172410996
 31
0.0
  0
LINE
  8
0
 62
0
 10
-231.920522814
 20
67.6212410996
 30
0.0
 11
-231.920522814
 21
61.0172410996
 31
0.0
  0
LINE
  8
0
 62
0
 10
-230.015522814
 20
69.5262410996
 30
0.0
 11
-231.920522814
 21
67.6212410996
 31
0.0
  0
LINE
  8
0
 62
0
 10
-228.841480309
 20
69.5262410996
 30
0.0
 11
-230.015522814
 21
69.5262410996
 31
0.0
  0
ARC
  8
0
 62
0
 10
-228.841480309
 20
88.5762410996
 30
0.0
 40
19.05
 50
-90.0
 51
-65.0
  0
LINE
  8
0
 62
0
 10
-197.79006539
 20
82.0364043166
 30
0.0
 11
-220.790602423
 21
71.3110777565
 31
0.0
  0
ARC
  8
0
 62
0
 10
-189.739187504
 20
64.7712409736
 30
0.0
 40
19.05
 50
90.0
 51
115.0
  0
LINE
  8
0
 62
0
 10
-143.654971787
 20
83.8212409736
 30
0.0
 11
-189.739187504
 21
83.8212409736
 31
0.0
  0
ARC
  8
0
 62
0
 10
-143.654971787
 20
77.4712409736
 30
0.0
 40
6.35
 50
-0.0
 51
90.0
  0
LINE
  8
0
 62
0
 10
-137.304971787
 20
-45.5362590264
 30
0.0
 11
-137.304971787
 21
77.4712409736
 31
0.0
  0
ARC
  8
0
 62
0
 10
-143.654971787
 20
-45.5362590264
 30
0.0
 40
6.35
 50
-90.0
 51
-0.0
  0
LINE
  8
0
 62
0
 10
-218.565465106
 20
-51.8862590264
 30
0.0
 11
-143.654971787
 21
-51.8862590264
 31
0.0
  0
ARC
  8
0
 62
0
 10
-218.565465106
 20
-58.2362590264
 30
0.0
 40
6.35
 50
90.0
 51
115.00634861
  0
LINE
  8
0
 62
0
 10
-298.795644816
 20
-88.6522178055
 30
0.0
 11
-221.249728735
 21
-52.4815019709
 31
0.0
  0
ARC
  8
0
 62
0
 10
-301.479908446
 20
-82.89746075
 30
0.0
 40
6.35
 50
-154.99365139
 51
-64.99365139
  0
LINE
  8
0
 62
0
 10
-333.277374699
 20
-29.7491068767
 30
0.0
 11
-307.234665501
 21
-85.5817243795
 31
0.0
  0
ARC
  8
0
 62
0
 10
-327.522617644
 20
-27.0648432472
 30
0.0
 40
6.35
 50
115.00634861
 51
-154.99365139
  0
LINE
  8
0
 62
0
 10
-295.657208292
 20
-5.19464818083
 30
0.0
 11
-330.206881273
 21
-21.3100861917
 31
0.0
  0
ARC
  8
0
 62
0
 10
-298.341471921
 20
0.560108874639
 30
0.0
 40
6.35
 50
-64.99365139
 51
-0.0
  0
LINE
  8
0
 62
0
 10
-291.991471921
 20
63.1762410996
 30
0.0
 11
-291.991471921
 21
0.560108874639
 31
0.0
  0
ARC
  8
0
 62
0
 10
-285.641471921
 20
63.1762410996
 30
0.0
 40
6.35
 50
90.0
 51
-180.0
  0
LINE
  8
0
 62
0
 10
-273.331971913
 20
69.5262410996
 30
0.0
 11
-285.641471921
 21
69.5262410996
 31
0.0
  0
LINE
  8
0
 62
0
 10
-271.426971913
 20
67.6212410996
 30
0.0
 11
-273.331971913
 21
69.5262410996
 31
0.0
  0
LINE
  8
0
 62
0
 10
-271.426971913
 20
66.0972410996
 30
0.0
 11
-271.426971913
 21
67.6212410996
 31
0.0
  0
LINE
  8
0
 62
0
 10
-274.205638229
 20
66.0972410996
 30
0.0
 11
-271.426971913
 21
66.0972410996
 31
0.0
  0
LINE
  8
0
 62
0
 10
-282.84802294
 20
57.4548563889
 30
0.0
 11
-274.205638229
 21
66.0972410996
 31
0.0
  0
LINE
  8
0
 62
0
 10
-282.84802294
 20
-10.0012814928
 30
0.0
 11
-282.84802294
 21
57.4548563889
 31
0.0
  0
LINE
  8
0
 62
0
 10
-322.966147484
 20
-28.7230729465
 30
0.0
 11
-282.84802294
 21
-10.0012814928
 31
0.0
  0
LINE
  8
0
 62
0
 10
-299.786711104
 20
-78.3932937593
 30
0.0
 11
-322.966147484
 21
-28.7230729465
 31
0.0
  0
LINE
  8
0
 62
0
 10
-223.391636677
 20
-42.7422590264
 30
0.0
 11
-299.786711104
 21
-78.3932937593
 31
0.0
  0
LINE
  8
0
 62
0
 10
-146.449522814
 20
-42.7422590264
 30
0.0
 11
-223.391636677
 21
-42.7422590264
 31
0.0
  0
LINE
  8
0
 62
0
 10
-146.449522814
 20
66.0972410996
 30
0.0
 11
-146.449522814
 21
-42.7422590264
 31
0.0
  0
ARC
  8
0
 62
0
 10
-289.828803047
 20
-6.582868438
 30
0.0
 40
2.2479
 50
-0.0
 51
-180.0
  0
ARC
  8
0
 62
0
 10
-329.210421781
 20
-26.450744562
 30
0.0
 40
2.2479
 50
-0.0
 51
-180.0
  0
ARC
  8
0
 62
0
 10
-302.094007131
 20
-84.585264887
 30
0.0
 40
2.2479
 50
-0.0
 51
-180.0
  0
ARC
  8
0
 62
0
 10
-222.461467522
 20
-47.4412590264
 30
0.0
 40
2.2479
 50
-0.0
 51
-180.0
  0
ARC
  8
0
 62
0
 10
-143.019971787
 20
-46.1712590264
 30
0.0
 40
2.2479
 50
-0.0
 51
-180.0
  0
ARC
  8
0
 62
0
 10
-141.513470827
 20
75.7567409736
 30
0.0
 40
2.2479
 50
-0.0
 51
-180.0
  0
ARC
  8
0
 62
0
 10
-193.962470827
 20
75.8837409736
 30
0.0
 40
2.2479
 50
-0.0
 51
-180.0
  0
ARC
  8
0
 62
0
 10
-286.276471921
 20
63.8112410996
 30
0.0
 40
2.2479
 50
-0.0
 51
-180.0
  0
ARC
  8
0
 62
0
 10
-228.491471921
 20
64.7637410996
 30
0.0
 40
2.2479
 50
-0.0
 51
-180.0
  0
ENDBLK
  0
ENDSEC
  0
SECTION
  2
ENTITIES
  0
INSERT
  2
PART__FEATURE
  8
0
 62
0
 10
0.0
 20
0.0
 30
0.0
  0
ENDSEC
  0
EOF
