  0
SECTION
  2
HEADER
  9
$ACADVER
  1
AC1009
  9
$INSBASE
 10
0.0
 20
0.0
 30
0.0
  9
$EXTMIN
 10
0.0
 20
0.0
 30
0.0
  9
$EXTMAX
 10
0.0
 20
0.0
 30
0.0
  0
ENDSEC
  0
SECTION
  2
TABLES
  0
TABLE
  2
VPORT
 70
0
  0
ENDTAB
  0
TABLE
  2
LTYPE
 70
1
  0
LTYPE
  2
CONTINUOUS
 70
0
  3
Solid line
 72
65
 73
0
 40
0.0
  0
ENDTAB
  0
TABLE
  2
LAYER
 70
1
  0
LAYER
  2
0
 70
64
 62
7
  6
continuous
  0
ENDTAB
  0
TABLE
  2
STYLE
 70
1
  0
STYLE
  2
STANDARD
 70
0
 40
0
 41
1.0
 50
0.0
 71
0
 42
1
 3
ARIAL.TTF
 4

  0
ENDTAB
  0
TABLE
  2
VIEW
 70
0
  0
ENDTAB
  0
ENDSEC
  0
SECTION
  2
BLOCKS
  0
BLOCK
  8
0
  2
PART__FEATURE
 70
0
 10
0.0
 20
0.0
 30
0.0
  3
PART__FEATURE
  0
POLYLINE
  8
0
 62
0
 70
0
 66
1
 10
0.0
 20
0.0
 30
0.0
  0
VERTEX
  8
0
 10
-200.998738532
 20
0.0
 30
0.0
  0
VERTEX
  8
0
 10
-200.403495588
 20
0.0
 30
0.0
  0
SEQEND
  8
0
  0
POLYLINE
  8
0
 62
0
 70
0
 66
1
 10
0.0
 20
0.0
 30
0.0
  0
VERTEX
  8
0
 10
-200.998738532
 20
4.0
 30
0.0
  0
VERTEX
  8
0
 10
-200.403495588
 20
4.0
 30
0.0
  0
SEQEND
  8
0
  0
LINE
  8
0
 62
0
 10
-200.403495588
 20
0.0
 30
0.0
 11
-174.36078639
 21
0.0
 31
0.0
  0
LINE
  8
0
 62
0
 10
-200.403495588
 20
4.0
 30
0.0
 11
-174.36078639
 21
4.0
 31
0.0
  0
POLYLINE
  8
0
 62
0
 70
0
 66
1
 10
0.0
 20
0.0
 30
0.0
  0
VERTEX
  8
0
 10
-174.36078639
 20
0.0
 30
0.0
  0
VERTEX
  8
0
 10
-170.777196057
 20
0.0
 30
0.0
  0
VERTEX
  8
0
 10
-165.921765705
 20
0.0
 30
0.0
  0
SEQEND
  8
0
  0
POLYLINE
  8
0
 62
0
 70
0
 66
1
 10
0.0
 20
0.0
 30
0.0
  0
VERTEX
  8
0
 10
-174.36078639
 20
4.0
 30
0.0
  0
VERTEX
  8
0
 10
-170.777196057
 20
4.0
 30
0.0
  0
VERTEX
  8
0
 10
-165.921765705
 20
4.0
 30
0.0
  0
SEQEND
  8
0
  0
LINE
  8
0
 62
0
 10
-165.921765705
 20
0.0
 30
0.0
 11
-88.3758496241
 21
0.0
 31
0.0
  0
LINE
  8
0
 62
0
 10
-165.921765705
 20
4.0
 30
0.0
 11
-88.3758496241
 21
4.0
 31
0.0
  0
POLYLINE
  8
0
 62
0
 70
0
 66
1
 10
0.0
 20
0.0
 30
0.0
  0
VERTEX
  8
0
 10
-85.6915859946
 20
4.0
 30
0.0
  0
VERTEX
  8
0
 10
-88.3758496241
 20
4.0
 30
0.0
  0
SEQEND
  8
0
  0
POLYLINE
  8
0
 62
0
 70
0
 66
1
 10
0.0
 20
0.0
 30
0.0
  0
VERTEX
  8
0
 10
-85.6915859946
 20
0.0
 30
0.0
  0
VERTEX
  8
0
 10
-88.3758496241
 20
0.0
 30
0.0
  0
SEQEND
  8
0
  0
LINE
  8
0
 62
0
 10
-85.6915859946
 20
0.0
 30
0.0
 11
-10.7810926757
 21
0.0
 31
0.0
  0
LINE
  8
0
 62
0
 10
-85.6915859946
 20
4.0
 30
0.0
 11
-10.7810926757
 21
4.0
 31
0.0
  0
POLYLINE
  8
0
 62
0
 70
0
 66
1
 10
0.0
 20
0.0
 30
0.0
  0
VERTEX
  8
0
 10
-10.7810926757
 20
0.0
 30
0.0
  0
VERTEX
  8
0
 10
-6.2909646152
 20
0.0
 30
0.0
  0
VERTEX
  8
0
 10
-4.43109267573
 20
0.0
 30
0.0
  0
SEQEND
  8
0
  0
LINE
  8
0
 62
0
 10
-4.43109267573
 20
4.0
 30
0.0
 11
-4.43109267573
 21
0.0
 31
0.0
  0
POLYLINE
  8
0
 62
0
 70
0
 66
1
 10
0.0
 20
0.0
 30
0.0
  0
VERTEX
  8
0
 10
-10.7810926757
 20
4.0
 30
0.0
  0
VERTEX
  8
0
 10
-6.2909646152
 20
4.0
 30
0.0
  0
VERTEX
  8
0
 10
-4.43109267573
 20
4.0
 30
0.0
  0
SEQEND
  8
0
  0
LINE
  8
0
 62
0
 10
-200.403495588
 20
4.0
 30
0.0
 11
-200.403495588
 21
0.0
 31
0.0
  0
LINE
  8
0
 62
0
 10
-174.36078639
 20
4.0
 30
0.0
 11
-174.36078639
 21
0.0
 31
0.0
  0
LINE
  8
0
 62
0
 10
-165.921765705
 20
4.0
 30
0.0
 11
-165.921765705
 21
0.0
 31
0.0
  0
LINE
  8
0
 62
0
 10
-88.3758496241
 20
4.0
 30
0.0
 11
-88.3758496241
 21
0.0
 31
0.0
  0
LINE
  8
0
 62
0
 10
-85.6915859946
 20
4.0
 30
0.0
 11
-85.6915859946
 21
0.0
 31
0.0
  0
LINE
  8
0
 62
0
 10
-10.7810926757
 20
4.0
 30
0.0
 11
-10.7810926757
 21
0.0
 31
0.0
  0
LINE
  8
0
 62
0
 10
-200.998738532
 20
4.0
 30
0.0
 11
-200.998738532
 21
0.0
 31
0.0
  0
ENDBLK
  0
ENDSEC
  0
SECTION
  2
ENTITIES
  0
INSERT
  2
PART__FEATURE
  8
0
 62
0
 10
0.0
 20
0.0
 30
0.0
  0
ENDSEC
  0
EOF
