  0
SECTION
  2
HEADER
  9
$ACADVER
  1
AC1009
  9
$INSBASE
 10
0.0
 20
0.0
 30
0.0
  9
$EXTMIN
 10
0.0
 20
0.0
 30
0.0
  9
$EXTMAX
 10
0.0
 20
0.0
 30
0.0
  0
ENDSEC
  0
SECTION
  2
TABLES
  0
TABLE
  2
VPORT
 70
0
  0
ENDTAB
  0
TABLE
  2
LTYPE
 70
1
  0
LTYPE
  2
CONTINUOUS
 70
0
  3
Solid line
 72
65
 73
0
 40
0.0
  0
ENDTAB
  0
TABLE
  2
LAYER
 70
1
  0
LAYER
  2
0
 70
64
 62
7
  6
continuous
  0
ENDTAB
  0
TABLE
  2
STYLE
 70
1
  0
STYLE
  2
STANDARD
 70
0
 40
0
 41
1.0
 50
0.0
 71
0
 42
1
 3
ARIAL.TTF
 4

  0
ENDTAB
  0
TABLE
  2
VIEW
 70
0
  0
ENDTAB
  0
ENDSEC
  0
SECTION
  2
BLOCKS
  0
BLOCK
  8
0
  2
PART__FEATURE
 70
0
 10
0.0
 20
0.0
 30
0.0
  3
PART__FEATURE
  0
CIRCLE
  8
0
 62
0
 10
-127.31719904
 20
49.77266003
 30
0.0
 40
0.79375
  0
CIRCLE
  8
0
 62
0
 10
-142.126033439
 20
-49.5492183793
 30
0.0
 40
2.2479
  0
CIRCLE
  8
0
 62
0
 10
0.0280821344664
 20
-16.637
 30
0.0
 40
2.2479
  0
LINE
  8
0
 62
0
 10
-64.3488969801
 20
-60.6823139278
 30
0.0
 11
-69.1113969801
 21
-60.6823139278
 31
0.0
  0
LINE
  8
0
 62
0
 10
-64.3488969801
 20
-65.4448139278
 30
0.0
 11
-64.3488969801
 21
-60.6823139278
 31
0.0
  0
LINE
  8
0
 62
0
 10
-69.1113969801
 20
-65.4448139278
 30
0.0
 11
-64.3488969801
 21
-65.4448139278
 31
0.0
  0
LINE
  8
0
 62
0
 10
-69.1113969801
 20
-60.6823139278
 30
0.0
 11
-69.1113969801
 21
-65.4448139278
 31
0.0
  0
LINE
  8
0
 62
0
 10
-64.3488969801
 20
-42.6590765592
 30
0.0
 11
-69.1113969801
 21
-42.6590765592
 31
0.0
  0
LINE
  8
0
 62
0
 10
-64.3488969801
 20
-47.4215765592
 30
0.0
 11
-64.3488969801
 21
-42.6590765592
 31
0.0
  0
LINE
  8
0
 62
0
 10
-69.1113969801
 20
-47.4215765592
 30
0.0
 11
-64.3488969801
 21
-47.4215765592
 31
0.0
  0
LINE
  8
0
 62
0
 10
-69.1113969801
 20
-42.6590765592
 30
0.0
 11
-69.1113969801
 21
-47.4215765592
 31
0.0
  0
LINE
  8
0
 62
0
 10
-31.8051469801
 20
-41.3519452435
 30
0.0
 11
-57.2051469801
 21
-41.3519452435
 31
0.0
  0
LINE
  8
0
 62
0
 10
-31.8051469801
 20
-47.7019452435
 30
0.0
 11
-31.8051469801
 21
-41.3519452435
 31
0.0
  0
LINE
  8
0
 62
0
 10
-50.8551469801
 20
-47.7019452435
 30
0.0
 11
-31.8051469801
 21
-47.7019452435
 31
0.0
  0
LINE
  8
0
 62
0
 10
-50.8551469801
 20
-60.4019452435
 30
0.0
 11
-50.8551469801
 21
-47.7019452435
 31
0.0
  0
LINE
  8
0
 62
0
 10
-31.8051469801
 20
-60.4019452435
 30
0.0
 11
-50.8551469801
 21
-60.4019452435
 31
0.0
  0
LINE
  8
0
 62
0
 10
-31.8051469801
 20
-66.7519452435
 30
0.0
 11
-31.8051469801
 21
-60.4019452435
 31
0.0
  0
LINE
  8
0
 62
0
 10
-57.2051469801
 20
-66.7519452435
 30
0.0
 11
-31.8051469801
 21
-66.7519452435
 31
0.0
  0
LINE
  8
0
 62
0
 10
-57.2051469801
 20
-41.3519452435
 30
0.0
 11
-57.2051469801
 21
-66.7519452435
 31
0.0
  0
LINE
  8
0
 62
0
 10
-82.6051469801
 20
-66.7519452435
 30
0.0
 11
-76.2551469801
 21
-66.7519452435
 31
0.0
  0
LINE
  8
0
 62
0
 10
-82.6051469801
 20
-41.3519452435
 30
0.0
 11
-82.6051469801
 21
-66.7519452435
 31
0.0
  0
LINE
  8
0
 62
0
 10
-76.2551469801
 20
-41.3519452435
 30
0.0
 11
-82.6051469801
 21
-41.3519452435
 31
0.0
  0
LINE
  8
0
 62
0
 10
-76.2551469801
 20
-66.7519452435
 30
0.0
 11
-76.2551469801
 21
-41.3519452435
 31
0.0
  0
CIRCLE
  8
0
 62
0
 10
-142.998280233
 20
35.7783905884
 30
0.0
 40
2.2479
  0
CIRCLE
  8
0
 62
0
 10
-182.379898967
 20
15.9105144644
 30
0.0
 40
2.2479
  0
CIRCLE
  8
0
 62
0
 10
-75.6309447081
 20
-5.08
 30
0.0
 40
2.2479
  0
CIRCLE
  8
0
 62
0
 10
-155.263484317
 20
-42.2240058606
 30
0.0
 40
2.2479
  0
CIRCLE
  8
0
 62
0
 10
3.81055102702
 20
-3.81
 30
0.0
 40
2.2479
  0
CIRCLE
  8
0
 62
0
 10
5.31705198702
 20
118.118
 30
0.0
 40
2.2479
  0
CIRCLE
  8
0
 62
0
 10
-47.131948013
 20
118.245
 30
0.0
 40
2.2479
  0
CIRCLE
  8
0
 62
0
 10
-81.660949107
 20
107.125000126
 30
0.0
 40
2.2479
  0
CIRCLE
  8
0
 62
0
 10
-139.445949107
 20
106.172500126
 30
0.0
 40
2.2479
  0
ARC
  8
0
 62
0
 10
-34.9327245174
 20
-73.025
 30
0.0
 40
31.75
 50
-90.0
 51
-10.0
  0
LINE
  8
0
 62
0
 10
-3.66507835923
 20
-78.5383296409
 30
0.0
 11
9.52555102702
 21
-3.73055301339
 31
0.0
  0
LINE
  8
0
 62
0
 10
9.52555102702
 20
119.8325
 30
0.0
 11
9.52555102702
 21
-3.73055301339
 31
0.0
  0
ARC
  8
0
 62
0
 10
3.17555102702
 20
119.8325
 30
0.0
 40
6.35
 50
-0.0
 51
90.0
  0
LINE
  8
0
 62
0
 10
3.17555102702
 20
126.1825
 30
0.0
 11
-42.9086646896
 21
126.1825
 31
0.0
  0
ARC
  8
0
 62
0
 10
-42.9086646896
 20
107.1325
 30
0.0
 40
19.05
 50
90.0
 51
115.0
  0
LINE
  8
0
 62
0
 10
-50.9595425758
 20
124.397663343
 30
0.0
 11
-73.9600796086
 21
113.672336783
 31
0.0
  0
ARC
  8
0
 62
0
 10
-82.0109574948
 20
130.937500126
 30
0.0
 40
19.05
 50
-90.0
 51
-65.0
  0
LINE
  8
0
 62
0
 10
-82.0109574948
 20
111.887500126
 30
0.0
 11
-138.810949107
 21
111.887500126
 31
0.0
  0
ARC
  8
0
 62
0
 10
-138.810949107
 20
105.537500126
 30
0.0
 40
6.35
 50
90.0
 51
-180.0
  0
LINE
  8
0
 62
0
 10
-145.160949107
 20
105.537500126
 30
0.0
 11
-145.160949107
 21
42.921367901
 31
0.0
  0
ARC
  8
0
 62
0
 10
-151.510949107
 20
42.921367901
 30
0.0
 40
6.35
 50
-64.99365139
 51
-0.0
  0
LINE
  8
0
 62
0
 10
-148.826685478
 20
37.1666108456
 30
0.0
 11
-183.376358459
 21
21.0511728347
 31
0.0
  0
ARC
  8
0
 62
0
 10
-180.69209483
 20
15.2964157792
 30
0.0
 40
6.35
 50
115.00634861
 51
-154.99365139
  0
LINE
  8
0
 62
0
 10
-160.404142687
 20
-43.2204653531
 30
0.0
 11
-186.446851885
 21
12.6121521498
 31
0.0
  0
ARC
  8
0
 62
0
 10
-148.894628576
 20
-37.8519380941
 30
0.0
 40
12.7
 50
-154.99365139
 51
-125.52046228
  0
LINE
  8
0
 62
0
 10
-156.273248149
 20
-48.1885706795
 30
0.0
 11
-130.476004779
 21
-66.6034696586
 31
0.0
  0
ARC
  8
0
 62
0
 10
-159.990483069
 20
-107.95
 30
0.0
 40
50.8
 50
31.2051852368
 51
54.4795377205
  0
LINE
  8
0
 62
0
 10
-116.540360394
 20
-81.6302956037
 30
0.0
 11
-113.642182841
 21
-86.4147782973
 31
0.0
  0
ARC
  8
0
 62
0
 10
-81.054590835
 20
-66.675
 30
0.0
 40
38.1
 50
-148.794814763
 51
-90.0
  0
LINE
  8
0
 62
0
 10
-34.9327245174
 20
-104.775
 30
0.0
 11
-81.054590835
 21
-104.775
 31
0.0
  0
ENDBLK
  0
ENDSEC
  0
SECTION
  2
ENTITIES
  0
INSERT
  2
PART__FEATURE
  8
0
 62
0
 10
0.0
 20
0.0
 30
0.0
  0
ENDSEC
  0
EOF
